<svg version="1" xmlns="http://www.w3.org/2000/svg" width="906.667" height="906.667" viewBox="0 0 680.000000 680.000000"><path d="M169.7 200.7L0 370.5l18.2 18.2C28.3 398.8 36.9 407 37.5 407c.5 0 11.7-10.7 24.8-23.8 13-13.1 23.8-23.3 23.8-22.7.1.5.2 56.8.3 125l.1 124 90.3.1c49.6.1 90.8.4 91.6.7.8.3 1.7.3 2 0 .3-.3 2.4-.6 4.6-.5 2.2 0 6.7.1 9.9.1l6 .1 1.1 5.7c.7 3.1 1.6 6.4 2 7.2 6.2 12.7 11.7 18.8 20.9 23.4 6 2.9 7.4 3.2 15.7 3.2 6.9-.1 9.7-.5 11.7-1.8 1.5-.9 3.1-1.7 3.8-1.7 1.5 0 8.7-5.7 11.9-9.4 2.8-3.2 7.3-11 8.5-14.7.4-1.3.8-2.6.9-2.9.1-.3.6-2.4 1-4.8l.8-4.2h107.1c59 .1 109.5.1 112.3 0h5l-.1-124.3c-.1-68.3 0-124.7.2-125.2.2-.6 11 9.7 24.1 22.7 13 13.1 24.2 23.8 24.7 23.8.6 0 9.2-8.2 19.3-18.3l18.2-18.2-169.6-169.8C417.1 107.4 340.5 31 340.1 31c-.4 0-77.1 76.4-170.4 169.7zm270.7 5.8l100 99.5-.1 73.8c-.1 40.5-.2 75.5-.2 77.7v6.5c.1 1.4.1 4.1 0 6-.1 3.7-.2 18.3-.1 26.4 0 2.7.3 5.3.6 5.7.3.5 0 .9-.6.9-.7 0-.9.8-.5 2 .3 1 .6 4.1.5 6.7v6.8c0 1.1 0 3.1-.1 4.5-.1 2.6 0 8.1.2 10.2.1.7.1 3.5 0 6.3-.1 5.7-.1 7.6-.1 12.6 0 2.1-.5 3.8-1.2 4.1-.7.2-39.1.4-85.3.3h-84l-.1-17.2c0-10.1-.6-19.1-1.3-22-2.1-7.8-7-16.8-12.1-22.1l-4.9-4.9-.1-10.4c-.1-5.7-.1-11.1-.1-12 .1-1.4 4.5-1.6 44.9-1.6 40.2 0 57.6-.5 61.4-1.8.7-.2 3-.7 5.1-1 17.6-2.5 37.5-11.4 48.8-21.7 9.9-9 18.9-25 20.5-36.3.2-1.7.6-4.1.9-5.5 1.3-6.3.3-23.8-1.9-33.5-2.3-9.9-7.8-23.1-11.5-27.9-6.7-8.3-14.6-14.8-22.3-18.4-2.1-.9-3.8-2.4-3.9-3.2 0-.8-.2-2.2-.4-3-.2-.8-.7-3.1-1.1-5-.6-3.3-4.8-12.9-7.7-17.5-2.8-4.5-11.9-13.2-17.2-16.4-3.1-1.9-8.6-4.5-12.3-5.9l-6.7-2.5H339c-59.7-.1-110.3.2-112.5.5-7.1 1.1-17.8 5.4-21.3 8.5-.7.7-1.7 1.3-2.1 1.3-.9 0-9.9 8.7-12.8 12.5-1.3 1.6-2.3 3.5-2.3 4.2 0 .7-.4 1.3-.9 1.3-1.1 0-5.6 11.6-6.9 17.5-1.2 5.4-.7 47 .6 51.7.5 2.1.8 3.8.6 3.8-.2 0 1.5 3.6 3.7 8 5.4 10.7 14 19.6 24.1 25 7.5 4 18.7 7.1 25.2 7 1.7 0 4.5-.1 6.1-.1h27.3c1.3.1 3 .1 6 .1 3.7-.1 24.8-.1 26.2-.1.8.1 5.1.1 9.5.1s8.7-.1 9.5 0c.8 0 3.8-.1 6.5-.1h6.3c1.2.1 2.8.1 6 .1 3.7-.1 24.8-.1 26.2-.1.8.1 5.1.1 9.5.1 4.4-.1 9.4-.1 11-.1 1.7.1 8.2 0 14.5 0h13c2.2.1 17.3.1 18.5 0 .6-.1 3 0 5.5 0 6.1.2 9.5-.3 16.5-2.4 3.3-1 6.2-1.9 6.5-1.9.3-.1 3-1.6 6.2-3.4 9.2-5.3 17.4-14.3 22.4-24.7 2.4-4.9 4.4-8.6 4.4-8 .1.5.3 1.7.5 2.5 6.5 26.8 1.6 41.4-16.9 50-9.1 4.3-8.4 4.1-21.1 6.6-8 1.6-16 1.8-75 1.8l-66 .1-.3 30.3c-.1 19.4-.6 30.2-1.2 30.2-1.9 0-10.2 8.4-13.5 13.5-6.3 9.7-7.7 16.5-7.7 37 0 7.7-.1 14.7-.4 15.5-.4 1.4-8.8 1.6-75.1 1.5h-74.8l-.2-12c-.1-6.6-.2-13.8-.2-16-.1-2.2-.1-6.3-.1-9-.1-2.8-.2-5.9-.4-7-.2-1.1 0-3.2.4-4.6.4-1.5.4-3.2 0-3.9-.4-.6-.4-2.7 0-4.5.4-1.8.4-3.9-.1-4.6-.4-.7-.4-2 0-2.8.5-.9.6-2.4.2-3.4-.4-1-.4-4.5-.1-7.8.3-3.2.3-6.5-.1-7.2-.4-.6-.3-3.6 0-6.5.4-2.8.5-5.2.2-5.2-.5 0-.6-9.1-.1-11.5.1-.6.1-1.4 0-2-.1-.8-.1-9.1 0-15.5 0-.8 0-9.2-.1-18.6-.1-9.4.1-17.6.5-18.2.3-.6.3-1.3-.1-1.5-.5-.3-.8-20.4-.7-44.6v-44.2l100-99.4C294.5 151.8 339.7 107 340 107c.3 0 45.5 44.8 100.4 99.5z"/></svg>